<svg width="30" height="30" viewBox="0 0 30 30" fill="none" xmlns="http://www.w3.org/2000/svg">
<g clip-path="url(#clip0_3_85)">
<path d="M18.7616 14.2852L15.8495 20.1094C15.498 20.8184 14.4785 20.7949 14.1562 20.0742L10.8222 12.6738L9.0644 16.875H3.55073L14.2441 27.8027C14.6601 28.2305 15.3339 28.2305 15.7499 27.8027L26.4491 16.875H20.0566L18.7616 14.2852ZM27.7558 4.33008L27.6152 4.18359C24.5976 1.10156 19.6581 1.10156 16.6347 4.18359L14.9999 5.85937L13.3652 4.18945C10.3476 1.10156 5.40229 1.10156 2.38472 4.18945L2.24409 4.33008C-0.609419 7.24805 -0.732466 11.8945 1.81636 15H7.81635L9.91986 9.94922C10.2363 9.19336 11.3027 9.17578 11.6425 9.92578L15.0527 17.502L17.9238 11.7656C18.2695 11.0742 19.2538 11.0742 19.5995 11.7656L21.2167 15H28.1835C30.7323 11.8945 30.6093 7.24805 27.7558 4.33008Z" fill="#666666"/>
</g>
<defs>
<clipPath id="clip0_3_85">
<rect width="30" height="30" fill="white"/>
</clipPath>
</defs>
</svg>
